<mxfile host="Electron" agent="Mozilla/5.0 (Macintosh; Intel Mac OS X 10_15_7) AppleWebKit/537.36 (KHTML, like Gecko) draw.io/27.0.9 Chrome/134.0.6998.205 Electron/35.4.0 Safari/537.36" version="27.0.9">
  <diagram name="Pagina-1" id="AvLPnEBhP4OsRTwUJnNA">
    <mxGraphModel dx="946" dy="679" grid="1" gridSize="10" guides="1" tooltips="1" connect="1" arrows="1" fold="1" page="1" pageScale="1" pageWidth="827" pageHeight="1169" math="0" shadow="0">
      <root>
        <mxCell id="0" />
        <mxCell id="1" parent="0" />
        <mxCell id="k8m9dmYCY_QNFg5Jz3ZY-7" style="edgeStyle=orthogonalEdgeStyle;rounded=0;orthogonalLoop=1;jettySize=auto;html=1;entryX=0.5;entryY=1;entryDx=0;entryDy=0;" edge="1" parent="1" source="k8m9dmYCY_QNFg5Jz3ZY-1" target="k8m9dmYCY_QNFg5Jz3ZY-4">
          <mxGeometry relative="1" as="geometry" />
        </mxCell>
        <mxCell id="k8m9dmYCY_QNFg5Jz3ZY-8" value="is topic of" style="edgeLabel;html=1;align=center;verticalAlign=middle;resizable=0;points=[];" vertex="1" connectable="0" parent="k8m9dmYCY_QNFg5Jz3ZY-7">
          <mxGeometry y="-1" relative="1" as="geometry">
            <mxPoint as="offset" />
          </mxGeometry>
        </mxCell>
        <mxCell id="k8m9dmYCY_QNFg5Jz3ZY-1" value="&lt;div&gt;&lt;div&gt;&lt;b&gt;The sword in the stone&amp;nbsp;&lt;/b&gt;&lt;/div&gt;&lt;/div&gt;" style="rounded=1;whiteSpace=wrap;html=1;fillColor=#f8cecc;strokeColor=#b85450;" vertex="1" parent="1">
          <mxGeometry x="325" y="340" width="150" height="40" as="geometry" />
        </mxCell>
        <mxCell id="k8m9dmYCY_QNFg5Jz3ZY-15" value="is subject of&amp;nbsp;" style="edgeStyle=orthogonalEdgeStyle;rounded=0;orthogonalLoop=1;jettySize=auto;html=1;" edge="1" parent="1" source="k8m9dmYCY_QNFg5Jz3ZY-4" target="k8m9dmYCY_QNFg5Jz3ZY-16">
          <mxGeometry relative="1" as="geometry">
            <mxPoint x="220" y="220" as="targetPoint" />
          </mxGeometry>
        </mxCell>
        <mxCell id="k8m9dmYCY_QNFg5Jz3ZY-4" value="Arthurian Romance" style="rounded=1;whiteSpace=wrap;html=1;fillColor=#d5e8d4;strokeColor=#82b366;" vertex="1" parent="1">
          <mxGeometry x="340" y="200" width="120" height="40" as="geometry" />
        </mxCell>
        <mxCell id="k8m9dmYCY_QNFg5Jz3ZY-10" style="edgeStyle=orthogonalEdgeStyle;rounded=0;orthogonalLoop=1;jettySize=auto;html=1;entryX=1;entryY=0.5;entryDx=0;entryDy=0;" edge="1" parent="1" source="k8m9dmYCY_QNFg5Jz3ZY-9" target="k8m9dmYCY_QNFg5Jz3ZY-4">
          <mxGeometry relative="1" as="geometry" />
        </mxCell>
        <mxCell id="k8m9dmYCY_QNFg5Jz3ZY-11" value="based on" style="edgeLabel;html=1;align=center;verticalAlign=middle;resizable=0;points=[];" vertex="1" connectable="0" parent="k8m9dmYCY_QNFg5Jz3ZY-10">
          <mxGeometry x="-0.1265" y="2" relative="1" as="geometry">
            <mxPoint as="offset" />
          </mxGeometry>
        </mxCell>
        <mxCell id="k8m9dmYCY_QNFg5Jz3ZY-12" value="named after" style="edgeStyle=orthogonalEdgeStyle;rounded=0;orthogonalLoop=1;jettySize=auto;html=1;" edge="1" parent="1" source="k8m9dmYCY_QNFg5Jz3ZY-9" target="k8m9dmYCY_QNFg5Jz3ZY-13">
          <mxGeometry relative="1" as="geometry">
            <mxPoint x="760" y="120" as="targetPoint" />
          </mxGeometry>
        </mxCell>
        <mxCell id="k8m9dmYCY_QNFg5Jz3ZY-9" value="Merlin" style="rounded=1;whiteSpace=wrap;html=1;fillColor=#dae8fc;strokeColor=#6c8ebf;" vertex="1" parent="1">
          <mxGeometry x="590" y="90" width="90" height="30" as="geometry" />
        </mxCell>
        <mxCell id="k8m9dmYCY_QNFg5Jz3ZY-13" value="Merlin" style="rounded=1;whiteSpace=wrap;html=1;" vertex="1" parent="1">
          <mxGeometry x="740" y="140" width="60" height="20" as="geometry" />
        </mxCell>
        <mxCell id="k8m9dmYCY_QNFg5Jz3ZY-17" style="edgeStyle=orthogonalEdgeStyle;rounded=0;orthogonalLoop=1;jettySize=auto;html=1;entryX=0;entryY=0.5;entryDx=0;entryDy=0;exitX=0.5;exitY=1;exitDx=0;exitDy=0;" edge="1" parent="1" source="k8m9dmYCY_QNFg5Jz3ZY-16" target="k8m9dmYCY_QNFg5Jz3ZY-1">
          <mxGeometry relative="1" as="geometry" />
        </mxCell>
        <mxCell id="k8m9dmYCY_QNFg5Jz3ZY-18" value="talks about" style="edgeLabel;html=1;align=center;verticalAlign=middle;resizable=0;points=[];" vertex="1" connectable="0" parent="k8m9dmYCY_QNFg5Jz3ZY-17">
          <mxGeometry x="-0.1556" y="-1" relative="1" as="geometry">
            <mxPoint as="offset" />
          </mxGeometry>
        </mxCell>
        <mxCell id="k8m9dmYCY_QNFg5Jz3ZY-20" value="is graphic representation of" style="edgeStyle=orthogonalEdgeStyle;rounded=0;orthogonalLoop=1;jettySize=auto;html=1;entryX=0.25;entryY=0;entryDx=0;entryDy=0;exitX=0;exitY=1;exitDx=0;exitDy=0;" edge="1" parent="1" source="k8m9dmYCY_QNFg5Jz3ZY-16" target="k8m9dmYCY_QNFg5Jz3ZY-19">
          <mxGeometry relative="1" as="geometry" />
        </mxCell>
        <mxCell id="k8m9dmYCY_QNFg5Jz3ZY-16" value="The sword in the stone (animation)" style="rounded=1;whiteSpace=wrap;html=1;fillColor=#dae8fc;strokeColor=#6c8ebf;" vertex="1" parent="1">
          <mxGeometry x="100" y="190" width="120" height="50" as="geometry" />
        </mxCell>
        <mxCell id="k8m9dmYCY_QNFg5Jz3ZY-21" value="represents" style="edgeStyle=orthogonalEdgeStyle;rounded=0;orthogonalLoop=1;jettySize=auto;html=1;entryX=0.5;entryY=1;entryDx=0;entryDy=0;" edge="1" parent="1" source="k8m9dmYCY_QNFg5Jz3ZY-19" target="k8m9dmYCY_QNFg5Jz3ZY-1">
          <mxGeometry relative="1" as="geometry" />
        </mxCell>
        <mxCell id="k8m9dmYCY_QNFg5Jz3ZY-19" value="The sword in the stone (manifesto)" style="rounded=1;whiteSpace=wrap;html=1;fillColor=#dae8fc;strokeColor=#6c8ebf;" vertex="1" parent="1">
          <mxGeometry x="30" y="400" width="130" height="40" as="geometry" />
        </mxCell>
        <mxCell id="k8m9dmYCY_QNFg5Jz3ZY-24" value="talks about" style="edgeStyle=orthogonalEdgeStyle;rounded=0;orthogonalLoop=1;jettySize=auto;html=1;entryX=0.5;entryY=1;entryDx=0;entryDy=0;" edge="1" parent="1" source="k8m9dmYCY_QNFg5Jz3ZY-23" target="k8m9dmYCY_QNFg5Jz3ZY-9">
          <mxGeometry relative="1" as="geometry" />
        </mxCell>
        <mxCell id="k8m9dmYCY_QNFg5Jz3ZY-25" value="is topic of" style="edgeStyle=orthogonalEdgeStyle;rounded=0;orthogonalLoop=1;jettySize=auto;html=1;entryX=1;entryY=1;entryDx=0;entryDy=0;" edge="1" parent="1" source="k8m9dmYCY_QNFg5Jz3ZY-23" target="k8m9dmYCY_QNFg5Jz3ZY-4">
          <mxGeometry relative="1" as="geometry" />
        </mxCell>
        <mxCell id="k8m9dmYCY_QNFg5Jz3ZY-26" value="is about" style="edgeStyle=orthogonalEdgeStyle;rounded=0;orthogonalLoop=1;jettySize=auto;html=1;entryX=0.5;entryY=1;entryDx=0;entryDy=0;" edge="1" parent="1" source="k8m9dmYCY_QNFg5Jz3ZY-23" target="k8m9dmYCY_QNFg5Jz3ZY-13">
          <mxGeometry relative="1" as="geometry">
            <mxPoint x="750" y="270" as="targetPoint" />
          </mxGeometry>
        </mxCell>
        <mxCell id="k8m9dmYCY_QNFg5Jz3ZY-23" value="Il mago Merlino: Memorie, traduzioni, leggende" style="rounded=1;whiteSpace=wrap;html=1;fillColor=#dae8fc;strokeColor=#6c8ebf;" vertex="1" parent="1">
          <mxGeometry x="575" y="240" width="125" height="60" as="geometry" />
        </mxCell>
        <mxCell id="k8m9dmYCY_QNFg5Jz3ZY-27" value="Sword" style="rounded=1;whiteSpace=wrap;html=1;fillColor=#dae8fc;strokeColor=#6c8ebf;" vertex="1" parent="1">
          <mxGeometry x="260" y="540" width="60" height="30" as="geometry" />
        </mxCell>
        <mxCell id="k8m9dmYCY_QNFg5Jz3ZY-28" value="King Arthur (from the Heroes Tapestries)" style="rounded=1;whiteSpace=wrap;html=1;fillColor=#dae8fc;strokeColor=#6c8ebf;" vertex="1" parent="1">
          <mxGeometry x="500" y="510" width="120" height="60" as="geometry" />
        </mxCell>
        <mxCell id="k8m9dmYCY_QNFg5Jz3ZY-30" value="is part of" style="edgeStyle=orthogonalEdgeStyle;rounded=0;orthogonalLoop=1;jettySize=auto;html=1;" edge="1" parent="1" source="k8m9dmYCY_QNFg5Jz3ZY-29" target="k8m9dmYCY_QNFg5Jz3ZY-16">
          <mxGeometry relative="1" as="geometry" />
        </mxCell>
        <mxCell id="k8m9dmYCY_QNFg5Jz3ZY-31" value="is musical representation of" style="edgeStyle=orthogonalEdgeStyle;rounded=0;orthogonalLoop=1;jettySize=auto;html=1;entryX=0;entryY=0;entryDx=0;entryDy=0;" edge="1" parent="1" source="k8m9dmYCY_QNFg5Jz3ZY-29" target="k8m9dmYCY_QNFg5Jz3ZY-1">
          <mxGeometry x="-0.4074" relative="1" as="geometry">
            <Array as="points">
              <mxPoint x="325" y="130" />
              <mxPoint x="325" y="130" />
            </Array>
            <mxPoint as="offset" />
          </mxGeometry>
        </mxCell>
        <mxCell id="k8m9dmYCY_QNFg5Jz3ZY-29" value="The sword in the stone (music)" style="rounded=1;whiteSpace=wrap;html=1;fillColor=#dae8fc;strokeColor=#6c8ebf;" vertex="1" parent="1">
          <mxGeometry x="230" y="30" width="110" height="40" as="geometry" />
        </mxCell>
      </root>
    </mxGraphModel>
  </diagram>
</mxfile>
